<svg xmlns="http://www.w3.org/2000/svg" viewBox="0 0 480 195.38666">
  <path d="M91.805 55.544h-32.47v32.47h32.47zm-8.213 8.212V79.8H67.548V63.757h16.044" fill="#fff"/>
  <path d="M91.805 92.12H55.23V55.543h2.05v34.525h34.525v2.052M81.54 76.72h-2.054v-8.857h-8.858V65.81h10.91v10.91" fill="#91dbec"/>
  <path d="M52.43 25.768H29.66v22.77h22.77zm-5.493 5.492v11.785H35.152V31.26h11.785" fill="#ff7900"/>
  <path d="M52.43 52.644H25.552V25.768h2.052v24.824H52.43v2.052M44.883 39.965H42.83v-4.598h-4.598v-2.052h6.65v6.65" fill="#91dbec"/>
  <path d="M133.68 3.133c-5.66 0-10.252 4.59-10.252 10.255 0 5.663 4.59 10.253 10.253 10.253 5.665 0 10.256-4.59 10.256-10.252 0-5.664-4.59-10.255-10.255-10.255zm0 5.494c2.627 0 4.763 2.136 4.763 4.76 0 2.626-2.136 4.762-4.762 4.762-2.624 0-4.76-2.137-4.76-4.762 0-2.625 2.136-4.76 4.76-4.76" fill="#bed600"/>
  <path d="M133.683 27.748c-7.92 0-14.36-6.44-14.36-14.36h2.052c0 6.787 5.52 12.308 12.308 12.308v2.052M135.596 15.303l-1.452-1.452c.256-.255.256-.67 0-.926-.255-.255-.668-.255-.927 0l-1.45-1.452c1.056-1.055 2.777-1.052 3.828 0 1.058 1.056 1.058 2.775 0 3.83" fill="#91dbec"/>
  <path d="M41.044 96.048c-5.663 0-10.254 4.59-10.254 10.255 0 5.662 4.59 10.253 10.254 10.253 5.663 0 10.254-4.59 10.254-10.253 0-5.664-4.59-10.255-10.254-10.255zm0 5.493c2.625 0 4.76 2.136 4.76 4.763 0 2.625-2.135 4.76-4.76 4.76s-4.762-2.135-4.762-4.76c0-2.627 2.137-4.762 4.762-4.762" fill="#6639b7"/>
  <path d="M41.044 120.663c-7.918 0-14.36-6.442-14.36-14.36h2.052c0 6.785 5.522 12.308 12.308 12.308v2.053M42.96 108.217l-1.453-1.453c.123-.123.19-.287.19-.463 0-.173-.067-.336-.19-.46-.258-.255-.67-.255-.926 0l-1.45-1.452c1.056-1.056 2.774-1.056 3.83 0 .51.51.79 1.188.79 1.913 0 .724-.28 1.404-.79 1.917" fill="#91dbec"/>
  <path d="M108.607 30.255c-4.687 0-8.487 3.8-8.487 8.485 0 4.687 3.8 8.485 8.487 8.485 4.685 0 8.485-3.798 8.485-8.485 0-4.685-3.8-8.485-8.485-8.485zm0 3.296c2.86 0 5.19 2.33 5.19 5.19 0 2.863-2.33 5.19-5.19 5.19-2.862 0-5.19-2.327-5.19-5.19 0-2.86 2.328-5.19 5.19-5.19" fill="#ff7900"/>
  <path d="M108.607 51.332c-6.944 0-12.592-5.648-12.592-12.59h2.052c0 5.81 4.728 10.538 10.54 10.538v2.052M110.823 40.96l-1.45-1.455c.203-.202.315-.476.315-.764 0-.29-.112-.56-.316-.765-.425-.423-1.11-.42-1.533 0l-1.45-1.452c1.222-1.223 3.21-1.223 4.434 0 .59.59.92 1.378.92 2.218 0 .84-.33 1.627-.92 2.22" fill="#91dbec"/>
  <path d="M13.606 56.51L6.813 69.37H20.4zm0 5.88l2.236 4.234H11.37z" fill="#fff"/>
  <path d="M20.4 73.477H0l9.47-17.93 2.32.005-8.383 15.872H20.4v2.053" fill="#91dbec"/>
  <path d="M13.606 63.96l1.012 1.916h-2.024z" fill="#91dbec"/>
  <path d="M41.044 0c-3.4 0-6.157 2.757-6.157 6.157s2.757 6.156 6.157 6.156S47.2 9.557 47.2 6.157 44.446 0 41.045 0zm0 2.747c1.88 0 3.41 1.53 3.41 3.41 0 1.88-1.53 3.41-3.41 3.41-1.88 0-3.41-1.53-3.41-3.41 0-1.88 1.53-3.41 3.41-3.41" fill="#b634bb"/>
  <path d="M41.044 16.42c-5.66 0-10.263-4.604-10.263-10.263h2.053c0 4.527 3.684 8.21 8.21 8.21v2.053M42.74 7.845l-1.453-1.452c.135-.133.135-.352 0-.485-.13-.13-.35-.133-.486 0l-1.448-1.455c.932-.93 2.453-.93 3.385 0 .937.938.937 2.458.003 3.392" fill="#91dbec"/>
  <path d="M116.144 111.387h4.65c6.935 0 11.075 4.268 11.075 11.42 0 7.32-4.037 11.518-11.075 11.518h-4.65zm-7.55 29.6h12.546c11.397 0 18.48-6.967 18.48-18.18 0-11.154-7.08-18.083-18.477-18.083h-12.55v36.264M151.568 114.61h-7.45v26.378h7.45zm-.05-9.886h-7.4v6.76h7.4v-6.76M166.2 114.016c-6.116 0-10.225 3.215-10.225 8 0 5.216 4.75 7.163 8.217 8.585 2.167.89 4.037 1.656 4.037 2.783 0 1.164-1.37 1.684-2.723 1.684-3.796 0-6.428-2.568-6.455-2.595l-.512-.51-.395.605-2.866 4.397-.253.388.317.337c.15.158 3.757 3.89 10.212 3.89 6.02 0 10.224-3.352 10.224-8.15 0-5.27-4.817-7.207-8.336-8.62-2.016-.81-3.92-1.577-3.92-2.597 0-1.244 1.415-1.685 2.625-1.685 3.557 0 5.754 1.996 5.775 2.017l.575.53.352-.698 2.323-4.645.186-.372-.288-.3c-.12-.123-3.01-3.044-8.873-3.044M192.088 114.016c-8.272 0-14.277 5.796-14.277 13.78 0 7.987 6.006 13.784 14.278 13.784 6.957 0 10.665-4.125 10.82-4.3l.272-.31-.197-.36-2.423-4.447-.377-.695-.556.563c-.03.03-3.052 3.037-6.995 3.037-4.772 0-7.27-3.682-7.27-7.32 0-4.183 2.974-7.22 7.073-7.22 3.642 0 6.125 2.514 6.15 2.54l.515.532.4-.624 2.768-4.3.232-.36-.273-.332c-.135-.16-3.367-3.968-10.14-3.968M219.164 135.067c-3.948 0-6.925-3.124-6.925-7.27 0-4.144 2.976-7.27 6.924-7.27 3.92 0 6.873 3.126 6.873 7.27 0 4.146-2.954 7.27-6.873 7.27zm-.05-21.05c-8.225 0-14.425 5.924-14.425 13.78 0 7.858 6.222 13.783 14.474 13.783 8.223 0 14.423-5.925 14.423-13.783 0-7.856-6.223-13.78-14.474-13.78M247.756 130.625c-.14.424-.27.906-.383 1.383-.113-.477-.24-.96-.38-1.383l-5.373-16.016h-7.883l9.568 26.378h8.238l9.465-26.38h-7.88l-5.372 16.017M269.255 124.097c.714-2.594 2.61-4.064 5.294-4.064 2.44 0 4.07 1.54 4.36 4.064zm5.44-10.08c-7.882 0-13.386 5.666-13.386 13.78 0 7.986 5.942 13.783 14.13 13.783 6.43 0 10.365-3.613 10.53-3.767l.33-.31-.216-.396-2.42-4.496-.345-.643-.556.476c-.03.026-3.104 2.624-6.88 2.624-2.82 0-6.22-1.455-6.896-5.496h17.265l.05-.534c.005-.07.15-1.715.15-2.473 0-7.506-4.725-12.547-11.758-12.547M297.664 114.61h-7.205v26.378h7.45v-10.57c0-1.553.17-2.837.515-3.925 1.14-3.598 4.006-4.88 6.31-4.88.78 0 1.388.092 1.393.094l.677.102v-7.35l-.482-.088c-.024-.005-.603-.11-1.242-.11-2.984 0-5.735 1.683-7.416 4.38v-4.033M319.105 140.004l-.84 1.995c-.78 1.843-2.168 2.9-3.808 2.9-1.214 0-2.454-.91-2.466-.92l-.59-.44-.3.675-2.073 4.693-.192.432.38.28c.098.07 2.417 1.745 5.588 1.745 4.417 0 7.932-2.533 9.642-6.948l11.58-29.808h-8.153l-5.077 15.025c-.124.37-.243.786-.35 1.197-.13-.452-.272-.91-.418-1.31l-5.43-14.913h-8.37l10.878 25.394M357.177 104.13c-7.038 0-12.35 4.63-12.35 10.77 0 6.496 5.706 8.955 10.29 10.932 3.362 1.448 6.266 2.7 6.266 5.03 0 2.702-2.424 3.662-4.502 3.662-4.632 0-8.3-3.505-8.336-3.54l-.488-.475-.4.55-3.457 4.795-.28.384.32.352c.18.203 4.565 4.988 12.54 4.988 7.157 0 12.156-4.47 12.156-10.867 0-6.822-5.773-9.21-10.412-11.128-3.27-1.352-6.095-2.52-6.095-4.785 0-2.093 1.977-3.612 4.7-3.612 4.106 0 7.33 2.88 7.36 2.91l.56.507.355-.664 2.77-5.188.198-.373-.29-.31c-.152-.16-3.815-3.94-10.906-3.94M386.083 135.116c-3.91 0-5.69-3.717-5.69-7.17 0-5.434 2.964-7.37 5.738-7.37 3.403 0 5.69 2.943 5.69 7.32 0 4.32-2.307 7.22-5.737 7.22zM373.14 114.61v36.262h7.45v-11.164c0-.223-.002-.433-.006-.632 1.17 1.09 3.33 2.504 6.635 2.504 7.124 0 12.1-5.668 12.1-13.783 0-8.242-4.724-13.78-11.755-13.78-3.91 0-6.276 1.694-7.517 2.995v-2.403h-6.91M411.92 135.512c-2.375 0-3.217-1.44-3.217-2.675 0-2.78 4.25-3.365 7.813-3.365h.5v.005c0 2.85-2.18 6.035-5.096 6.035zm5.492 5.476h6.955v-16.353c0-6.65-4.135-10.62-11.063-10.62-6.116 0-10.085 3.11-10.25 3.24l-.38.305.226.43 2.373 4.498.316.6.55-.4c.032-.023 3.204-2.307 6.57-2.307 2.774 0 4.167 1.184 4.253 3.62h-.25c-10.002 0-15.512 3.243-15.512 9.135 0 5.544 4.6 8.445 9.14 8.445 3.124 0 5.177-1.27 6.35-2.337.265-.242.505-.492.722-.743v2.488M442.156 114.016c-8.273 0-14.277 5.796-14.277 13.78 0 7.987 6.003 13.784 14.276 13.784 6.956 0 10.665-4.125 10.82-4.3l.272-.31-.197-.36-2.422-4.447-.377-.695-.555.563c-.03.03-3.054 3.037-6.996 3.037-4.775 0-7.272-3.682-7.272-7.32 0-4.183 2.975-7.22 7.073-7.22 3.663 0 6.125 2.514 6.15 2.538l.515.536.403-.624 2.77-4.3.233-.36-.274-.332c-.135-.16-3.37-3.968-10.14-3.968M462.8 124.097c.712-2.594 2.61-4.064 5.292-4.064 2.444 0 4.075 1.54 4.364 4.064zm5.443-10.08c-7.883 0-13.388 5.666-13.388 13.78 0 7.986 5.94 13.783 14.128 13.783 6.434 0 10.37-3.613 10.533-3.767l.33-.31-.214-.396-2.424-4.496-.345-.643-.555.476c-.03.026-3.105 2.624-6.88 2.624-2.82 0-6.22-1.455-6.893-5.496H479.8l.05-.534c.005-.07.15-1.715.15-2.473 0-7.506-4.725-12.547-11.757-12.547" fill="#fff"/>
  <path d="M75.57 2.643L64.09 24.377h22.96zm0 8.82l4.646 8.794h-9.29z" fill="#bed600"/>
  <path d="M87.05 28.484H57.28L71.444 1.66l2.31.024-13.07 24.747H87.05v2.054" fill="#91dbec"/>
  <path d="M75.66 19.248l-1.29-2.34 1.107-2.303 2.513 4.648-2.33-.005" fill="#91dbec"/>
  <path d="M126.79 183.437c.313 1.17.342 2.14.37 2.14h.057s.086-1 .342-2.14l3.336-14.002h3.793l-5.22 20.248h-4.25l-3.108-11.98c-.343-1.31-.513-2.65-.513-2.65h-.06s-.17 1.34-.512 2.65l-3.11 11.98h-4.25l-5.073-20.248h3.793l3.195 14.002c.254 1.14.34 2.14.34 2.14h.057c.028 0 .057-.97.372-2.14l3.65-14.002h3.194l3.593 14.002M137.413 169.435h3.622v7.014c0 .713-.058 1.226-.058 1.226h.058c.713-1.397 2.482-2.88 5.02-2.88 3.222 0 5.046 1.68 5.046 5.533v9.353h-3.59v-8.614c0-1.767-.457-2.965-2.31-2.965-1.913 0-3.395 1.254-3.936 3.023-.172.57-.23 1.196-.23 1.88v6.675h-3.62v-20.248M164.06 180.613c-.06-1.966-1.284-3.022-2.88-3.022-1.856 0-3.137 1.14-3.48 3.023zm-2.796-5.818c4.192 0 6.445 3.052 6.445 6.902 0 .428-.086 1.398-.086 1.398h-10.04c.228 2.538 2.196 3.85 4.364 3.85 2.34 0 4.192-1.598 4.192-1.598l1.397 2.596s-2.224 2.08-5.844 2.08c-4.82 0-7.816-3.476-7.816-7.614 0-4.477 3.052-7.615 7.387-7.615M170.71 175.14h3.48v2.508c0 .54-.057 1.025-.057 1.025h.058c.657-2.08 2.397-3.734 4.62-3.734.342 0 .655.056.655.056v3.564s-.37-.057-.854-.057c-1.54 0-3.28.885-3.963 3.052-.228.712-.314 1.51-.314 2.366v5.763h-3.622V175.14M191.08 180.613c-.057-1.966-1.283-3.022-2.88-3.022-1.855 0-3.14 1.14-3.48 3.023zm-2.795-5.818c4.192 0 6.446 3.052 6.446 6.902 0 .428-.087 1.398-.087 1.398h-10.038c.23 2.538 2.196 3.85 4.364 3.85 2.338 0 4.19-1.598 4.19-1.598l1.397 2.596s-2.224 2.08-5.845 2.08c-4.82 0-7.813-3.476-7.813-7.614 0-4.477 3.05-7.615 7.385-7.615M205.695 184.493s2.194 2.138 5.046 2.138c1.54 0 2.94-.798 2.94-2.45 0-3.624-9.555-2.997-9.555-9.215 0-3.364 2.908-5.873 6.787-5.873 3.993 0 6.047 2.168 6.047 2.168l-1.6 2.993s-1.94-1.766-4.476-1.766c-1.712 0-3.05.997-3.05 2.422 0 3.593 9.523 2.707 9.523 9.182 0 3.224-2.452 5.932-6.673 5.932-4.505 0-6.988-2.765-6.988-2.765l2-2.767M227.32 174.795c3.792 0 5.59 2.168 5.59 2.168l-1.597 2.48s-1.512-1.567-3.793-1.567c-2.68 0-4.42 2.024-4.42 4.507 0 2.45 1.767 4.56 4.533 4.56 2.454 0 4.28-1.85 4.28-1.85l1.395 2.564s-2.08 2.367-5.988 2.367c-4.82 0-7.9-3.393-7.9-7.615 0-4.134 3.08-7.615 7.9-7.615M236.027 175.14h3.62v14.543h-3.62zm0-5.705h3.592v3.222h-3.593v-3.222M252.8 180.613c-.056-1.966-1.283-3.022-2.88-3.022-1.855 0-3.136 1.14-3.48 3.023zm-2.795-5.818c4.192 0 6.447 3.052 6.447 6.902 0 .428-.087 1.398-.087 1.398h-10.038c.226 2.538 2.196 3.85 4.364 3.85 2.338 0 4.19-1.598 4.19-1.598l1.4 2.596s-2.225 2.08-5.847 2.08c-4.82 0-7.813-3.476-7.813-7.614 0-4.477 3.05-7.615 7.385-7.615M259.452 175.14h3.48v1.68c0 .543-.06 1-.06 1h.06c.627-1.227 2.22-3.025 5.16-3.025 3.224 0 5.048 1.682 5.048 5.534v9.353h-3.59v-8.614c0-1.767-.46-2.965-2.313-2.965-1.936 0-3.365 1.226-3.906 2.964-.198.6-.255 1.254-.255 1.938v6.675h-3.623V175.14M283.79 174.795c3.793 0 5.59 2.168 5.59 2.168l-1.6 2.48s-1.51-1.567-3.792-1.567c-2.68 0-4.42 2.024-4.42 4.507 0 2.45 1.77 4.56 4.535 4.56 2.452 0 4.277-1.85 4.277-1.85l1.4 2.564s-2.083 2.367-5.99 2.367c-4.82 0-7.9-3.393-7.9-7.615 0-4.134 3.08-7.615 7.9-7.615M301.65 180.613c-.055-1.966-1.28-3.022-2.88-3.022-1.853 0-3.134 1.14-3.48 3.023zm-2.79-5.818c4.19 0 6.443 3.052 6.443 6.902 0 .428-.086 1.398-.086 1.398H295.18c.227 2.538 2.193 3.85 4.36 3.85 2.34 0 4.195-1.598 4.195-1.598l1.396 2.596s-2.22 2.08-5.843 2.08c-4.822 0-7.816-3.476-7.816-7.614 0-4.477 3.05-7.615 7.39-7.615M320 172.6h-6.64v-3.165h16.964v3.165h-6.64v17.083H320V172.6M335.244 187.2c1.908 0 3.277-2.052 3.277-3.82v-.34h-.627c-1.853 0-4.848.253-4.848 2.28 0 .968.714 1.88 2.2 1.88zm2.765-6.644h.483v-.2c0-1.91-1.198-2.565-2.798-2.565-2.08 0-3.99 1.398-3.99 1.398l-1.37-2.595s2.253-1.798 5.705-1.798c3.82 0 6.044 2.11 6.044 5.79v9.098h-3.333v-1.2c0-.568.055-1.024.055-1.024h-.054c.03 0-1.114 2.564-4.42 2.564-2.598 0-4.935-1.625-4.935-4.533 0-4.62 6.245-4.934 8.614-4.934M345.857 169.435h3.622v10.836h1.796l3.508-5.13h4.02l-4.592 6.5v.057l5.163 7.986h-4.163l-3.852-6.36h-1.88v6.36h-3.623v-20.248M370.53 180.613c-.055-1.966-1.28-3.022-2.88-3.022-1.85 0-3.134 1.14-3.475 3.023zm-2.79-5.818c4.188 0 6.443 3.052 6.443 6.902 0 .428-.086 1.398-.086 1.398H364.06c.227 2.538 2.193 3.85 4.36 3.85 2.34 0 4.195-1.598 4.195-1.598l1.397 2.596s-2.223 2.08-5.845 2.08c-4.822 0-7.816-3.476-7.816-7.614 0-4.477 3.05-7.615 7.39-7.615M377.613 185.347s1.595 1.597 3.964 1.597c1.027 0 1.91-.455 1.91-1.31 0-2.17-7.072-1.883-7.072-6.562 0-2.708 2.424-4.277 5.56-4.277 3.28 0 4.88 1.654 4.88 1.654l-1.342 2.68s-1.34-1.254-3.568-1.254c-.94 0-1.853.4-1.853 1.312 0 2.052 7.075 1.797 7.075 6.473 0 2.425-2.11 4.364-5.563 4.364-3.623 0-5.645-2.14-5.645-2.14l1.653-2.537M398.045 184.493s2.195 2.138 5.047 2.138c1.54 0 2.936-.798 2.936-2.45 0-3.624-9.55-2.997-9.55-9.215 0-3.364 2.91-5.873 6.785-5.873 3.992 0 6.046 2.168 6.046 2.168l-1.6 2.993s-1.935-1.766-4.474-1.766c-1.71 0-3.052.997-3.052 2.422 0 3.593 9.527 2.707 9.527 9.182 0 3.224-2.455 5.932-6.674 5.932-4.507 0-6.987-2.765-6.987-2.765l1.995-2.767M412.824 169.435h3.623v7.014c0 .713-.056 1.226-.056 1.226h.057c.714-1.397 2.48-2.88 5.02-2.88 3.222 0 5.046 1.68 5.046 5.533v9.353h-3.592v-8.614c0-1.767-.457-2.965-2.31-2.965-1.91 0-3.394 1.254-3.937 3.023-.17.57-.226 1.196-.226 1.88v6.675h-3.623v-20.248M434.94 187.2c1.908 0 3.277-2.052 3.277-3.82v-.34h-.628c-1.853 0-4.85.253-4.85 2.28 0 .968.716 1.88 2.2 1.88zm2.764-6.644h.485v-.2c0-1.91-1.2-2.565-2.798-2.565-2.08 0-3.992 1.398-3.992 1.398l-1.37-2.595s2.255-1.798 5.707-1.798c3.822 0 6.043 2.11 6.043 5.79v9.098h-3.333v-1.2c0-.568.056-1.024.056-1.024h-.056c.028 0-1.115 2.564-4.42 2.564-2.6 0-4.936-1.625-4.936-4.533 0-4.62 6.246-4.934 8.614-4.934M452.683 186.972c1.996 0 3.65-1.625 3.65-4.505 0-2.766-1.484-4.563-3.622-4.563-1.88 0-3.65 1.37-3.65 4.593 0 2.25 1.227 4.475 3.623 4.475zm-7.13-11.833h3.308v1.053c0 .542-.057 1-.057 1h.058s1.256-2.398 4.68-2.398c3.935 0 6.443 3.11 6.443 7.614 0 4.62-2.824 7.614-6.646 7.614-2.88 0-4.16-1.996-4.16-1.996h-.057s.056.515.056 1.255v6.104h-3.624V175.14M472.14 180.613c-.056-1.966-1.28-3.022-2.88-3.022-1.853 0-3.135 1.14-3.48 3.023zm-2.793-5.818c4.193 0 6.444 3.052 6.444 6.902 0 .428-.083 1.398-.083 1.398h-10.04c.228 2.538 2.194 3.85 4.36 3.85 2.342 0 4.196-1.598 4.196-1.598l1.397 2.596s-2.223 2.08-5.845 2.08c-4.82 0-7.816-3.476-7.816-7.614 0-4.477 3.05-7.615 7.387-7.615" fill="#bbe9f2"/>
</svg>
