<?xml version="1.0" encoding="utf-8"?>
<!-- Generator: Adobe Illustrator 19.0.0, SVG Export Plug-In . SVG Version: 6.00 Build 0)  -->
<svg version="1.1" id="layer" xmlns="http://www.w3.org/2000/svg" xmlns:xlink="http://www.w3.org/1999/xlink" x="0px" y="0px"
	 viewBox="-153 -46 652 652" style="enable-background:new -153 -46 652 652;" xml:space="preserve">
<style type="text/css">
	.st0{fill:#0069B5;}
</style>
<path class="st0" d="M-39.3,309.8v-58.6c0-45-40.1-27.2-40.1-59c0-6.3,2.9-17.4,2.9-24.2c0-12.9-5.9-18.2-5.9-18.2h23.6
	c0,0,5.9,5.3,5.9,18.2c0,6.8-2.9,18.1-2.9,24.2c0,31.6,40.2,13.6,40.2,59v58.6H-39.3z M-60.2,309.8v-58.6c0-45.4-40.2-27.3-40.2-59
	c0-6.1,2.9-17.4,2.9-24.2c0-12.9-5.9-18.2-5.9-18.2H-127c0,0,5.9,5.3,5.9,18.2c0,6.8-2.9,17.9-2.9,24.2c0,31.8,40.1,14,40.1,59v58.6
	H-60.2z M28.2,251.2c0-45.4-40.1-27.3-40.1-59c0-6.1,2.9-17.4,2.9-24.2c0-12.9-6-18.2-6-18.2h-23.6c0,0,5.9,5.3,5.9,18.2
	c0,6.8-2.9,17.9-2.9,24.2c0,31.8,40.1,14,40.1,59v58.6h23.7V251.2z M244.7,260.6h12.6v49.2h-12.6V260.6z M207.1,289v10.6h11.5
	c3.9,0,5.6-2.3,5.6-5.4c0-3.3-1.8-5.2-5.5-5.2H207.1z M207.1,270.8v8.3h11.2c3.4,0,4.7-1.7,4.7-4.2c0-2.5-1.3-4.1-4.9-4.1H207.1z
	 M195.2,309.8v-49.2h23.4c11.3,0,16.7,4.6,16.7,12.9c0,5-2.4,7.6-5.7,9.6c4.3,1.8,7,5.4,7,10.8c0,10.1-6.4,15.9-18.2,15.9H195.2z
	 M170.8,290.1l-4.9-15.9l-4.9,15.9H170.8z M174,300.4h-16.2l-2.9,9.4h-13.2l18.2-49.2h12.4l18.2,49.2h-13.4L174,300.4z M139.5,309.8
	l-17-32l14.7-17.2h-15.1l-14.6,18.8v-18.8H94.9v49.2h12.6v-14.7l6-7.2l11.3,21.9H139.5z M453,236.8c-8,0-15.6-2.9-20.2-7l6.7-9.1
	c3.5,2.8,9.3,5,13.9,5c5.1,0,7.1-1.1,7.1-3.9c0-2.3-1.8-3.5-9.2-5.3c-11-2.5-16.9-5.6-16.9-15.4c0-9.2,7.7-15.2,18.8-15.2
	c8.2,0,14.1,2.3,19.1,6.4l-6.7,9.2c-3.9-2.9-8.1-4.6-13-4.6c-4.5,0-5.7,1.5-5.7,3.5c0,2.2,1.8,3.2,8.7,4.8
	c10.9,2.5,17.5,6,17.5,15.7C473,231.6,465.3,236.8,453,236.8 M407.2,236.8c-12.3,0-21-6.8-21-22v-28h12.6v28
	c0,6.6,2.8,10.8,8.5,10.8c5.6,0,8.4-4.1,8.4-10.8v-28h12.5v28C428.3,229.9,419.6,236.8,407.2,236.8 M365.4,186.7H378V236h-12.6
	V186.7z M326.2,207.8V236h-12v-49.3h11.2l19,26.9v-26.9h12V236h-10.4L326.2,207.8z M271,186.7h35.5v10.8h-23.2v7.3h15.5v10.7h-15.5
	v9.6h24.9V236H271V186.7z M244.3,236.8c-8,0-15.6-2.9-20.2-7l6.7-9.1c3.5,2.8,9.3,5,13.9,5c5.1,0,7.1-1.1,7.1-3.9
	c0-2.3-1.8-3.5-9.2-5.3c-11-2.5-16.9-5.6-16.9-15.4c0-9.2,7.7-15.2,18.8-15.2c8.2,0,14.1,2.3,19.1,6.4l-6.7,9.2
	c-3.9-2.9-8.1-4.6-13-4.6c-4.5,0-5.7,1.5-5.7,3.5c0,2.2,1.8,3.2,8.7,4.8c10.9,2.5,17.5,6,17.5,15.7
	C264.4,231.6,256.7,236.8,244.3,236.8 M184.4,186.7h35.5v10.8h-23.2v7.3h15.5v10.7h-15.5v9.6h24.9V236h-37.3V186.7z M148.7,197.4
	v11.4h9.6c4.5,0,6.5-2,6.5-5.8c0-3.5-2-5.6-6.3-5.6H148.7z M155.7,219.1h-7v17h-12.3v-49.3h22.4c10.8,0,18.4,4.6,18.4,15.9
	c0,7.4-3.4,12-9.1,14.4l9.7,18.9H164L155.7,219.1z M131.7,197.7v-11H94.9V236h12.4v-19.8h17.4v-10.9h-17.4v-7.6H131.7z M105.5,369.1
	c-5.2,0-9.1,4.6-9.1,12.9c0,8.1,3.5,13.3,9.3,13.3c3.2,0,5.3-1.3,7.6-3.5l2.8,3c-2.8,2.8-6,4.6-10.6,4.6c-7.2,0-13.9-5.5-13.9-17
	c0-12.2,7.3-17.3,14.2-17.3c4.5,0,7.9,1.6,10.4,3.9l-2.8,3.5C111,370.2,108.8,369.1,105.5,369.1 M142.7,383.9
	c-2.1-1.2-4.5-1.9-8.5-1.9c-4.8,0-7.7,2.3-7.7,6.5c0,4.9,2.7,7,6.7,7c4.3,0,7.5-2.2,9.5-5V383.9z M135.9,365c7.1,0,11.6,3,11.6,10.7
	v23h-4.7v-4c-2.3,2.5-5.6,4.7-10.3,4.7c-5.1,0-10.6-2.6-10.6-10.6c0-7.4,6.1-10.6,12.6-10.6c3.3,0,6.3,0.8,8.2,1.9v-3.9
	c0-4.9-2.3-7.3-7.2-7.3c-3.5,0-6.3,0.9-9,2.5l-1.8-3.8C127.7,366,131.6,365,135.9,365 M162.8,369.7c1.5-2.6,4.6-4.8,8.2-4.8
	c2.4,0,4,0.3,5.1,0.8l-1.2,4.8c-1.3-0.8-2.8-1.3-5-1.3c-4.6,0-7.2,3.7-7.2,10v19.3h-4.7v-33h4.7V369.7 M185.6,353
	c1.8,0,3.3,1.5,3.3,3.4c0,1.8-1.5,3.3-3.3,3.3c-1.9,0-3.4-1.5-3.4-3.3C182.2,354.5,183.7,353,185.6,353 M183.2,365.7h4.7v33h-4.7
	V365.7z M213.4,365c7,0,11.6,4.1,11.6,13.6v20.1h-4.7v-19.3c0-7.1-2.5-10.3-7.8-10.3c-4.6,0-8.2,3.1-8.2,10.3v19.3h-4.7v-33h4.7v4
	C206.2,366.9,209.3,365,213.4,365 M254.7,374c-1.8-2.8-5-5-8.9-5c-5.5,0-8.2,4.7-8.2,13.6c0,8.3,3.1,12.6,8.3,12.6
	c3.5,0,6.4-1.9,8.7-4.8V374z M254.7,365.7h4.7v30c0,9.9-4.5,14.7-16.7,15.1l-1.5-3.6c11-0.3,13.5-3.2,13.5-10.9v-1.7
	c-2.3,2.5-5.5,4.7-9.9,4.7c-6.6,0-11.8-5-11.8-16.7c0-11.7,5.5-17.7,12.4-17.7c4.1,0,7,1.8,9.3,4.4V365.7z M291.6,361.1
	c0-5.9,3.2-8.1,7.8-8.1c1.9,0,3,0.2,4.1,0.6v4.4c-1.1-0.5-2.3-0.7-3.8-0.7c-1.9,0-3.4,0.7-3.4,3.5v4.9h6.5v4h-6.5v29h-4.7v-29h-4.5
	v-4h4.5V361.1 M323,395.2c5.7,0,9.6-4.5,9.6-13.2c0-8.7-3.9-13-9.6-13c-5.7,0-9.5,4.3-9.5,13C313.4,390.7,317.3,395.2,323,395.2
	 M323.1,365c8,0,14.2,5.8,14.2,17c0,11.2-6.4,17.4-14.4,17.4c-8,0-14.2-6-14.2-17.2C308.7,371,315.1,365,323.1,365 M352,369.7
	c1.5-2.6,4.6-4.8,8.2-4.8c2.5,0,4,0.3,5.2,0.8l-1.2,4.8c-1.3-0.8-2.8-1.3-5-1.3c-4.6,0-7.2,3.7-7.2,10v19.3h-4.7v-33h4.7V369.7
	 M391.3,355.5l4.7-2.6v45.8h-4.7V355.5z M411.5,353c1.8,0,3.3,1.5,3.3,3.4c0,1.8-1.5,3.3-3.3,3.3c-1.9,0-3.5-1.5-3.5-3.3
	C408.1,354.5,409.6,353,411.5,353 M409.1,365.7h4.7v33h-4.7V365.7z M428.5,361.1c0-5.9,3.2-8.1,7.8-8.1c1.9,0,3,0.2,4.2,0.6v4.5
	c-1.1-0.5-2.3-0.7-3.8-0.7c-2,0-3.4,0.7-3.4,3.5v4.9h6.5v4h-6.5v29h-4.7v-29H424v-4h4.5V361.1 M467.4,379.9
	c-0.4-6.4-3.1-10.9-8.9-10.9c-4.9,0-8.3,3.5-8.9,10.9H467.4z M471.8,381.2c0,1.1-0.1,1.8-0.2,2.6h-22c0.4,7,3.8,11.5,9.2,11.5
	c3.8,0,6.1-1.1,9.1-3.1l2.2,3.4c-4,2.5-6.8,3.8-11.8,3.8c-6,0-13.4-4.4-13.4-17.3c0-10.5,5.8-17,13.6-17
	C467.2,365,471.8,371.8,471.8,381.2"/>
</svg>
